<?xml version="1.0" encoding="UTF-8" standalone="no"?>
<!DOCTYPE svg PUBLIC "-//W3C//DTD SVG 1.1//EN" "http://www.w3.org/Graphics/SVG/1.1/DTD/svg11.dtd">
<svg xmlns="http://www.w3.org/2000/svg" version="1.1" viewBox="0.00 0.00 1024.00 1024.00">
<g stroke-width="2.00" fill="none" stroke-linecap="butt">
<path stroke="#f8773d" vector-effect="non-scaling-stroke" d="
  M 169.34 433.97
  C 171.99 442.02 172.97 449.38 168.63 456.92
  Q 165.18 462.94 160.56 467.92
  A 0.29 0.28 34.0 0 1 160.23 467.98
  Q 160.20 467.97 160.18 467.97
  A 0.38 0.35 67.3 0 0 160.00 468.47
  L 162.19 473.31"
/>
<path stroke="#b0874c" vector-effect="non-scaling-stroke" d="
  M 140.89 423.21
  L 140.91 417.57"
/>
<path stroke="#f8773d" vector-effect="non-scaling-stroke" d="
  M 98.84 571.62
  Q 107.25 572.37 108.84 565.53
  C 109.33 563.40 108.68 559.98 107.65 558.21
  Q 105.19 553.98 103.72 549.52"
/>
<path stroke="#027cb8" vector-effect="non-scaling-stroke" d="
  M 695.27 487.66
  Q 685.17 493.02 674.46 496.47"
/>
<path stroke="#027cb8" vector-effect="non-scaling-stroke" d="
  M 621.53 485.29
  Q 610.29 485.36 598.77 487.01"
/>
<path stroke="#027cb8" vector-effect="non-scaling-stroke" d="
  M 776.49 448.08
  L 767.87 443.71"
/>
<path stroke="#027cb8" vector-effect="non-scaling-stroke" d="
  M 752.44 451.23
  L 727.29 458.57"
/>
<path stroke="#0f65bd" vector-effect="non-scaling-stroke" d="
  M 842.37 464.13
  Q 840.12 466.26 838.67 466.45
  Q 833.07 467.17 828.95 470.09"
/>
<path stroke="#0f65bd" vector-effect="non-scaling-stroke" d="
  M 793.71 496.23
  L 789.12 503.81
  A 5.73 5.60 -6.1 0 1 788.07 505.08
  Q 775.07 516.85 764.73 530.18"
/>
<path stroke="#3352bd" vector-effect="non-scaling-stroke" d="
  M 932.04 502.55
  L 928.24 510.77
  A 0.29 0.29 0.0 0 1 927.80 510.87
  L 911.68 497.80
  A 0.75 0.74 32.5 0 0 910.54 498.05
  Q 904.00 511.47 895.22 523.45
  Q 892.70 526.88 889.60 529.92
  C 884.51 534.89 881.99 538.32 875.70 538.87
  A 1.66 1.62 56.1 0 1 874.79 538.68
  Q 873.48 537.98 873.04 536.64"
/>
<path stroke="#3352bd" vector-effect="non-scaling-stroke" d="
  M 870.15 515.97
  Q 872.88 505.32 877.15 494.95
  A 0.12 0.12 0.0 0 0 876.99 494.79
  L 851.21 506.47
  A 0.55 0.54 -9.6 0 0 850.89 506.91
  Q 850.60 509.30 849.59 514.75
  Q 849.01 517.87 848.10 520.30
  A 2.50 2.41 56.9 0 0 847.95 521.09
  L 847.43 540.00"
/>
<path stroke="#0e7192" vector-effect="non-scaling-stroke" d="
  M 851.98 501.16
  Q 851.13 500.81 850.79 501.21"
/>
<path stroke="#256692" vector-effect="non-scaling-stroke" d="
  M 869.43 530.24
  Q 869.31 531.50 869.97 532.45"
/>
<path stroke="#00888d" vector-effect="non-scaling-stroke" d="
  M 529.86 534.92
  Q 527.43 533.04 524.48 535.46
  C 519.94 539.19 514.42 543.04 511.97 548.66"
/>
<path stroke="#198b5a" vector-effect="non-scaling-stroke" d="
  M 440.43 549.08
  L 446.09 553.19
  A 0.64 0.63 -47.0 0 0 446.87 553.16
  Q 453.10 547.94 456.93 540.64
  A 1.10 1.07 50.4 0 0 457.00 539.78
  L 455.85 536.27"
/>
<path stroke="#198b5a" vector-effect="non-scaling-stroke" d="
  M 508.49 461.29
  L 508.75 462.72"
/>
<path stroke="#198b5a" vector-effect="non-scaling-stroke" d="
  M 497.36 493.98
  Q 496.12 494.15 495.74 495.75"
/>
<path stroke="#198b5a" vector-effect="non-scaling-stroke" d="
  M 477.77 511.52
  Q 476.75 511.50 476.77 511.99"
/>
<path stroke="#198b5a" vector-effect="non-scaling-stroke" d="
  M 475.80 512.37
  Q 473.62 512.60 472.40 514.19"
/>
<path stroke="#198b5a" vector-effect="non-scaling-stroke" d="
  M 472.00 514.48
  Q 470.41 514.63 469.96 515.51"
/>
<path stroke="#198b5a" vector-effect="non-scaling-stroke" d="
  M 469.52 515.72
  Q 468.17 515.73 467.43 516.72"
/>
<path stroke="#198b5a" vector-effect="non-scaling-stroke" d="
  M 465.72 517.50
  Q 465.25 517.38 464.96 517.72"
/>
<path stroke="#198b5a" vector-effect="non-scaling-stroke" d="
  M 463.01 518.46
  Q 462.14 518.15 461.88 519.00"
/>
<path stroke="#198b5a" vector-effect="non-scaling-stroke" d="
  M 457.51 520.73
  Q 457.02 520.68 456.84 521.01"
/>
<path stroke="#198b5a" vector-effect="non-scaling-stroke" d="
  M 454.58 531.76
  Q 454.35 533.67 455.16 534.74"
/>
<path stroke="#509a45" vector-effect="non-scaling-stroke" d="
  M 432.29 540.04
  Q 431.69 540.31 431.35 540.26
  A 0.29 0.29 0.0 0 1 431.14 539.82
  Q 432.34 537.85 434.12 536.57
  A 2.43 2.42 85.7 0 0 434.88 535.68
  Q 446.64 512.01 463.85 491.71"
/>
<path stroke="#198b5a" vector-effect="non-scaling-stroke" d="
  M 463.85 491.71
  L 458.73 504.48"
/>
<path stroke="#509a45" vector-effect="non-scaling-stroke" d="
  M 494.67 463.93
  Q 500.39 461.22 502.91 455.47
  A 0.72 0.71 34.3 0 0 502.75 454.67
  Q 500.26 452.31 496.75 452.62
  Q 491.43 453.10 485.99 452.50
  Q 485.77 452.48 485.78 451.97"
/>
<path stroke="#509a45" vector-effect="non-scaling-stroke" d="
  M 493.29 461.53
  Q 493.37 461.16 493.01 460.94
  Q 492.71 460.76 492.46 461.04"
/>
<path stroke="#509a45" vector-effect="non-scaling-stroke" d="
  M 490.56 460.28
  Q 489.42 459.06 487.69 460.00"
/>
<path stroke="#509a45" vector-effect="non-scaling-stroke" d="
  M 474.09 473.41
  Q 473.69 473.66 473.80 474.04"
/>
<path stroke="#509a45" vector-effect="non-scaling-stroke" d="
  M 470.77 478.12
  Q 469.18 479.88 468.54 482.45"
/>
<path stroke="#509a45" vector-effect="non-scaling-stroke" d="
  M 468.54 482.67
  Q 467.36 482.81 467.73 484.48"
/>
<path stroke="#509a45" vector-effect="non-scaling-stroke" d="
  M 466.43 486.93
  Q 465.47 487.04 465.19 488.75"
/>
<path stroke="#379353" vector-effect="non-scaling-stroke" d="
  M 465.19 488.75
  Q 464.23 490.15 463.85 491.71"
/>
<path stroke="#509a45" vector-effect="non-scaling-stroke" d="
  M 426.50 535.09
  Q 428.56 534.11 429.66 532.01"
/>
<path stroke="#509a45" vector-effect="non-scaling-stroke" d="
  M 429.71 531.87
  L 433.57 527.65
  A 0.68 0.67 53.9 0 0 433.68 526.91
  L 433.47 526.47"
/>
<path stroke="#509a45" vector-effect="non-scaling-stroke" d="
  M 433.97 525.54
  Q 434.94 524.94 434.51 523.77"
/>
<path stroke="#509a45" vector-effect="non-scaling-stroke" d="
  M 435.97 513.73
  Q 436.70 513.50 436.22 512.26"
/>
<path stroke="#509a45" vector-effect="non-scaling-stroke" d="
  M 437.04 509.54
  Q 437.45 509.22 437.25 508.51"
/>
<path stroke="#198b5a" vector-effect="non-scaling-stroke" d="
  M 465.53 488.85
  Q 465.36 488.80 465.19 488.75"
/>
<path stroke="#198b5a" vector-effect="non-scaling-stroke" d="
  M 470.08 479.96
  L 469.79 480.74"
/>
<path stroke="#78a33e" vector-effect="non-scaling-stroke" d="
  M 411.92 526.76
  Q 411.46 527.89 411.79 528.28"
/>
<path stroke="#78a33e" vector-effect="non-scaling-stroke" d="
  M 411.69 528.46
  Q 411.53 528.68 411.47 528.96"
/>
<path stroke="#afb229" vector-effect="non-scaling-stroke" d="
  M 411.47 528.96
  Q 411.11 529.38 411.28 529.96"
/>
<path stroke="#afb229" vector-effect="non-scaling-stroke" d="
  M 411.18 530.19
  Q 410.77 532.34 411.45 534.07"
/>
<path stroke="#afb229" vector-effect="non-scaling-stroke" d="
  M 411.54 534.54
  Q 411.21 535.43 411.71 536.06"
/>
<path stroke="#afb229" vector-effect="non-scaling-stroke" d="
  M 417.49 540.67
  Q 417.23 540.60 417.01 540.59
  A 0.29 0.28 -81.2 0 0 416.72 540.81
  L 413.26 554.13
  A 1.13 1.12 -89.5 0 1 412.44 554.94
  Q 397.77 558.56 391.23 545.12"
/>
<path stroke="#afb229" vector-effect="non-scaling-stroke" d="
  M 390.24 534.25
  L 390.25 533.53"
/>
<path stroke="#afb229" vector-effect="non-scaling-stroke" d="
  M 390.78 530.54
  Q 391.34 530.08 390.93 529.21"
/>
<path stroke="#afb229" vector-effect="non-scaling-stroke" d="
  M 392.81 522.03
  Q 393.11 521.75 393.00 521.25"
/>
<path stroke="#afb229" vector-effect="non-scaling-stroke" d="
  M 393.00 521.25
  Q 393.32 521.04 393.26 520.54"
/>
<path stroke="#f7b614" vector-effect="non-scaling-stroke" d="
  M 313.50 557.05
  L 320.12 537.74"
/>
<path stroke="#ff9619" vector-effect="non-scaling-stroke" d="
  M 291.33 533.60
  Q 290.50 527.17 291.88 520.50"
/>
<path stroke="#379353" vector-effect="non-scaling-stroke" d="
  M 411.55 529.21
  Q 411.51 529.08 411.47 528.96"
/>
</g>
<path fill="#f16c5a" d="
  M 169.34 433.97
  C 171.99 442.02 172.97 449.38 168.63 456.92
  Q 165.18 462.94 160.56 467.92
  A 0.29 0.28 34.0 0 1 160.23 467.98
  Q 160.20 467.97 160.18 467.97
  A 0.38 0.35 67.3 0 0 160.00 468.47
  L 162.19 473.31
  C 153.73 460.66 145.30 447.77 141.99 433.00
  Q 141.17 429.31 140.89 423.21
  L 140.91 417.57
  Q 141.15 403.21 148.42 390.89
  Q 160.95 369.66 184.27 363.79
  C 191.09 362.08 199.71 362.11 205.50 362.41
  Q 208.77 362.58 216.30 364.71
  Q 227.39 367.84 232.91 377.33
  C 236.88 384.16 239.50 392.64 238.53 400.40
  Q 238.50 400.66 238.12 405.72
  C 237.28 417.07 230.15 430.70 218.50 433.63
  A 2.21 2.17 40.3 0 1 217.81 433.68
  Q 209.79 432.80 204.54 426.77
  A 0.42 0.42 0.0 0 1 204.80 426.08
  C 212.30 424.98 218.12 418.38 220.81 411.58
  Q 222.40 407.58 223.44 401.76
  C 225.03 392.93 223.30 384.20 217.47 377.25
  A 4.58 4.47 87.3 0 0 216.71 376.54
  C 209.95 371.67 201.14 369.62 193.03 372.01
  Q 177.76 376.52 169.80 390.59
  C 167.80 394.13 165.17 399.30 164.66 404.10
  Q 163.62 414.04 165.37 423.07
  C 166.04 426.53 167.93 430.43 169.34 433.97
  Z"
/>
<path fill="#008bb3" d="
  M 695.27 487.66
  Q 685.17 493.02 674.46 496.47
  C 669.66 481.21 654.30 473.80 639.10 472.81
  C 636.46 472.64 634.25 471.85 631.77 471.93
  C 630.01 471.99 628.46 471.00 626.83 470.89
  A 0.79 0.79 0.0 0 0 626.03 471.43
  L 621.53 485.29
  Q 610.29 485.36 598.77 487.01
  Q 607.68 460.65 616.20 434.41
  C 618.95 425.94 621.67 417.97 622.81 410.07
  C 623.14 407.75 625.07 405.98 627.33 403.81
  C 631.63 399.67 638.28 394.35 644.33 393.87
  Q 648.25 393.56 651.57 394.31
  A 0.77 0.77 0.0 0 1 652.05 395.46
  C 649.99 398.79 647.96 403.80 646.55 408.23
  Q 636.74 439.08 629.65 460.32
  A 0.46 0.45 88.8 0 0 630.24 460.89
  Q 636.06 458.69 642.32 460.30
  A 0.66 0.66 0.0 0 1 642.81 461.07
  Q 642.69 461.72 642.23 462.47
  A 0.49 0.49 0.0 0 0 642.50 463.20
  Q 643.19 463.41 643.86 462.78
  Q 644.19 462.47 645.18 462.25
  Q 657.80 459.42 667.65 450.88
  C 678.12 441.81 685.35 431.40 687.94 417.51
  Q 688.42 414.93 688.42 408.36
  Q 688.41 402.67 687.53 399.26
  C 683.51 383.60 669.38 376.26 653.85 378.16
  C 649.38 378.70 646.35 378.78 642.71 379.89
  Q 624.41 385.46 609.21 397.45
  Q 597.88 406.39 589.91 419.89
  Q 587.53 423.93 586.90 429.11
  A 1.07 1.07 0.0 0 1 585.69 430.04
  Q 574.62 428.48 575.58 417.10
  C 576.41 407.22 583.16 399.24 591.03 393.52
  Q 608.25 381.01 628.15 373.18
  C 643.19 367.27 658.86 365.48 675.32 368.54
  C 685.94 370.51 698.53 376.95 704.49 386.23
  Q 710.72 395.94 710.95 408.75
  C 711.30 428.96 703.47 446.53 686.01 457.24
  Q 679.99 460.93 670.15 464.41
  Q 668.65 464.94 666.67 464.92
  A 0.73 0.72 70.4 0 0 666.11 466.11
  Q 666.63 466.73 667.63 466.99
  Q 678.16 469.71 684.28 474.03
  C 687.26 476.13 690.30 479.83 692.65 482.48
  A 4.37 4.36 -78.6 0 1 693.34 483.52
  L 695.27 487.66
  Z"
/>
<path fill="#008bb3" d="
  M 776.49 448.08
  L 767.87 443.71
  C 772.28 436.29 776.51 429.19 780.20 421.08
  Q 781.43 418.37 784.85 411.37
  Q 787.64 405.64 791.89 391.95
  A 4.60 4.56 -36.6 0 0 792.10 390.58
  L 792.10 384.97
  A 1.14 1.14 0.0 0 0 791.03 383.83
  Q 789.85 383.76 788.86 384.03
  A 1.56 1.50 12.3 0 0 788.18 384.45
  Q 783.21 389.68 781.49 392.24
  C 769.46 410.13 760.30 430.92 752.44 451.23
  L 727.29 458.57
  Q 728.09 455.96 729.03 453.51
  C 737.64 431.10 747.82 406.29 762.39 385.90
  Q 766.78 379.76 774.92 373.90
  Q 783.44 367.77 793.45 369.30
  Q 797.36 369.90 800.43 374.39
  A 3.44 3.40 21.8 0 1 800.90 375.47
  Q 802.59 382.34 802.84 384.53
  Q 802.89 384.97 802.36 386.43
  A 3.95 3.76 57.7 0 0 802.14 387.53
  Q 801.92 393.03 800.44 397.74
  Q 798.22 404.80 794.22 413.76
  Q 786.31 431.43 776.49 448.08
  Z"
/>
<path fill="#008467" d="
  M 529.86 534.92
  Q 527.43 533.04 524.48 535.46
  C 519.94 539.19 514.42 543.04 511.97 548.66
  C 508.36 542.07 509.08 536.10 509.14 529.18
  A 3.15 3.09 -35.5 0 1 509.33 528.11
  L 510.18 525.83
  A 0.56 0.56 0.0 0 0 509.40 525.13
  Q 508.81 525.42 508.21 526.45
  C 506.52 529.37 503.31 533.93 500.41 536.73
  C 497.63 539.42 495.93 542.07 492.86 544.40
  C 483.84 551.23 476.47 556.21 465.90 558.48
  C 462.99 559.11 459.98 558.78 457.19 558.84
  A 1.64 1.63 62.1 0 1 456.16 558.52
  Q 456.13 558.50 456.07 558.45
  A 2.05 2.04 -19.6 0 0 455.16 558.02
  Q 446.04 556.28 440.43 549.08
  L 446.09 553.19
  A 0.64 0.63 -47.0 0 0 446.87 553.16
  Q 453.10 547.94 456.93 540.64
  A 1.10 1.07 50.4 0 0 457.00 539.78
  L 455.85 536.27
  Q 460.46 545.58 471.26 545.01
  A 3.92 3.92 0.0 0 0 472.22 544.85
  Q 475.85 543.83 478.17 542.88
  Q 482.29 541.19 488.75 536.21
  Q 494.90 531.48 500.66 524.92
  C 501.17 524.34 501.39 523.66 501.88 523.11
  Q 506.88 517.55 511.38 511.37
  C 512.21 510.22 512.91 508.76 513.42 507.19
  Q 520.79 484.70 528.20 463.74
  Q 531.59 454.14 532.85 451.11
  A 0.88 0.88 0.0 0 0 531.77 449.93
  L 529.66 450.60
  A 3.83 3.75 35.0 0 1 528.57 450.78
  Q 519.12 450.93 515.78 450.65
  Q 512.29 450.36 509.54 446.97
  A 1.82 1.81 -64.9 0 1 509.13 445.82
  L 509.13 441.87
  A 3.67 3.67 0.0 0 1 511.52 438.43
  Q 516.18 436.69 521.32 437.11
  A 3.75 3.64 35.7 0 0 522.99 436.86
  Q 525.68 435.80 531.02 436.24
  A 5.94 5.83 -47.9 0 0 532.69 436.14
  Q 534.59 435.72 536.86 436.03
  A 1.04 1.03 14.1 0 0 537.97 435.37
  C 540.16 429.54 542.65 423.61 540.24 418.31
  A 1.01 1.00 -38.5 0 1 540.36 417.28
  Q 543.53 413.12 548.03 412.53
  Q 552.43 411.95 556.86 413.35
  Q 560.51 414.50 561.89 420.10
  Q 562.12 421.02 561.88 427.43
  A 0.64 0.54 58.7 0 1 561.85 427.62
  L 559.75 434.74
  A 1.05 1.05 0.0 0 0 560.76 436.09
  L 575.01 436.12
  A 1.29 1.04 -32.6 0 1 575.28 436.15
  Q 580.01 437.27 583.12 440.19
  A 2.12 2.10 13.8 0 1 583.69 441.12
  C 585.31 446.67 581.13 449.67 576.25 449.76
  Q 565.61 449.96 555.74 449.77
  A 0.79 0.78 10.4 0 0 554.99 450.28
  Q 554.13 452.58 553.87 454.22
  A 3.95 3.55 -32.5 0 1 553.69 454.87
  C 550.04 464.33 547.63 471.45 543.97 480.26
  Q 535.30 501.16 530.61 523.10
  Q 529.96 526.11 529.91 528.98
  Q 529.86 531.97 529.86 534.92
  Z"
/>
<path fill="#6ea23e" d="
  M 140.91 417.57
  L 140.89 423.21
  L 140.91 417.57
  Z"
/>
<path fill="#ff821f" d="
  M 98.84 571.62
  Q 107.25 572.37 108.84 565.53
  C 109.33 563.40 108.68 559.98 107.65 558.21
  Q 105.19 553.98 103.72 549.52
  Q 108.87 560.58 118.96 565.30
  C 123.34 567.34 130.07 569.19 135.55 569.15
  Q 140.36 569.12 145.22 568.12
  Q 150.31 567.08 154.42 565.03
  Q 174.46 554.98 179.67 532.11
  Q 183.80 513.99 176.31 497.71
  C 172.20 488.79 167.32 481.33 162.19 473.31
  L 160.00 468.47
  A 0.38 0.35 67.3 0 1 160.18 467.97
  Q 160.20 467.97 160.23 467.98
  A 0.29 0.28 34.0 0 0 160.56 467.92
  Q 165.18 462.94 168.63 456.92
  C 172.97 449.38 171.99 442.02 169.34 433.97
  C 175.21 445.16 183.26 456.65 189.56 465.95
  Q 191.52 468.84 196.55 477.96
  Q 200.46 485.03 202.29 490.52
  Q 206.84 504.18 205.78 518.62
  A 3.13 2.99 -36.5 0 1 205.66 519.31
  Q 205.03 521.44 204.70 524.98
  Q 204.38 528.38 203.07 532.54
  C 197.95 548.80 187.51 564.93 172.47 573.21
  Q 147.48 586.97 119.20 580.53
  Q 108.27 578.04 98.84 571.62
  Z"
/>
<path fill="#efc114" d="
  M 411.92 526.76
  Q 411.46 527.89 411.79 528.28
  Q 411.74 528.37 411.69 528.46
  Q 411.53 528.68 411.47 528.96
  Q 411.11 529.38 411.28 529.96
  Q 411.23 530.08 411.18 530.19
  Q 410.77 532.34 411.45 534.07
  Q 411.53 534.27 411.54 534.54
  Q 411.21 535.43 411.71 536.06
  Q 412.84 540.35 417.49 540.67
  Q 417.23 540.60 417.01 540.59
  A 0.29 0.28 -81.2 0 0 416.72 540.81
  L 413.26 554.13
  A 1.13 1.12 -89.5 0 1 412.44 554.94
  Q 397.77 558.56 391.23 545.12
  Q 389.42 540.66 390.24 534.25
  L 390.25 533.53
  L 390.78 530.54
  Q 391.34 530.08 390.93 529.21
  L 392.81 522.03
  Q 393.11 521.75 393.00 521.25
  Q 393.32 521.04 393.26 520.54
  Q 394.62 515.57 395.94 512.69
  Q 402.54 498.30 409.40 483.97
  A 1.69 1.69 0.0 0 0 408.53 481.68
  Q 402.81 479.28 398.52 474.97
  A 0.72 0.72 0.0 0 0 397.37 475.16
  Q 387.57 495.08 376.76 512.75
  Q 368.07 526.95 359.53 536.80
  Q 350.37 547.38 341.11 553.06
  Q 334.07 557.39 324.17 558.70
  A 5.24 5.15 -43.1 0 1 322.60 558.66
  L 313.50 557.05
  L 320.12 537.74
  Q 323.50 541.76 328.94 542.91
  A 4.31 4.29 -41.3 0 0 330.07 542.98
  Q 339.55 542.21 346.56 536.54
  Q 349.19 534.42 351.83 532.31
  C 354.66 530.06 357.10 527.28 359.19 524.69
  Q 366.38 515.81 372.07 505.66
  C 378.37 494.42 384.73 481.88 389.33 469.52
  A 2.07 2.06 33.8 0 0 388.90 467.38
  Q 387.07 465.42 385.35 461.49
  A 2.93 2.85 -57.7 0 1 385.10 460.31
  L 385.10 454.10
  A 1.89 1.69 59.0 0 1 385.23 453.42
  Q 389.60 442.97 399.48 438.28
  A 1.93 1.93 0.0 0 1 401.09 438.26
  Q 412.27 443.25 409.03 454.40
  C 408.41 456.55 407.04 458.98 406.74 461.58
  A 1.99 1.99 0.0 0 0 408.53 463.79
  L 411.87 464.12
  A 3.99 3.97 59.7 0 1 413.19 464.47
  Q 421.33 468.17 426.77 474.00
  C 431.09 478.64 430.66 483.41 427.97 489.10
  Q 426.36 492.51 419.43 506.40
  Q 414.52 516.25 411.92 526.76
  Z"
/>
<path fill="#036cbc" d="
  M 776.49 448.08
  Q 765.10 466.06 751.09 482.10
  Q 748.72 484.82 739.42 493.94
  Q 737.57 495.75 735.32 503.01
  Q 731.39 515.70 730.17 523.43
  Q 729.85 525.50 729.96 535.65
  A 3.29 3.25 32.6 0 0 730.26 536.97
  C 731.32 539.34 734.34 543.04 737.30 541.92
  Q 746.01 538.61 752.94 531.73
  C 753.94 530.74 754.35 529.36 755.18 528.52
  Q 760.81 522.82 763.38 518.62
  Q 764.14 517.36 764.11 514.64
  A 4.58 4.50 52.6 0 1 764.25 513.52
  Q 768.13 499.17 770.61 493.33
  Q 775.74 481.31 782.34 472.72
  C 792.67 459.27 808.07 448.10 825.81 451.17
  Q 837.19 453.13 842.37 464.13
  Q 840.12 466.26 838.67 466.45
  Q 833.07 467.17 828.95 470.09
  Q 824.25 461.34 815.20 467.23
  Q 810.53 470.26 806.93 474.69
  Q 798.91 484.55 793.71 496.23
  L 789.12 503.81
  A 5.73 5.60 -6.1 0 1 788.07 505.08
  Q 775.07 516.85 764.73 530.18
  Q 760.01 535.00 749.45 546.95
  Q 745.99 550.86 739.54 554.54
  Q 730.57 559.66 720.45 556.77
  C 711.76 554.29 708.76 543.47 708.69 535.48
  Q 708.55 517.28 713.26 500.26
  Q 719.16 478.99 727.29 458.57
  L 752.44 451.23
  Q 747.93 465.00 742.71 478.51
  Q 742.59 478.84 742.69 478.95
  A 0.80 0.80 0.0 0 0 743.93 478.91
  Q 746.67 475.33 751.59 469.10
  Q 756.15 463.33 767.87 443.71
  L 776.49 448.08
  Z"
/>
<path fill="#feaa13" d="
  M 320.12 537.74
  L 313.50 557.05
  Q 300.67 553.47 296.01 541.26
  Q 294.34 536.90 293.94 531.45
  A 0.38 0.38 0.0 0 0 293.41 531.13
  Q 292.14 531.69 291.33 533.60
  Q 290.50 527.17 291.88 520.50
  L 294.26 517.60
  A 2.29 2.29 0.0 0 0 294.77 516.41
  C 295.10 513.88 295.10 511.62 295.75 508.71
  Q 300.64 486.77 314.47 470.18
  C 325.60 456.82 341.01 446.63 359.06 452.11
  A 2.46 2.45 -15.1 0 1 359.95 452.62
  L 365.28 457.45
  A 1.62 1.61 -77.8 0 1 365.71 458.12
  L 367.74 464.44
  A 4.11 4.11 0.0 0 1 367.92 465.77
  Q 367.85 467.49 368.63 469.58
  A 4.86 4.83 -55.1 0 1 368.94 471.34
  Q 368.90 482.83 362.15 491.86
  C 360.26 494.40 358.12 494.71 354.71 494.52
  C 348.87 494.20 346.68 488.51 347.31 483.54
  Q 347.62 481.08 350.55 476.36
  Q 353.25 472.02 354.66 467.19
  C 355.01 466.01 355.85 460.21 353.81 459.25
  C 350.72 457.80 346.69 460.11 344.21 462.24
  Q 340.14 465.75 337.68 468.40
  Q 334.59 471.73 328.56 481.57
  Q 319.85 495.81 316.74 511.84
  C 315.95 515.94 315.99 518.63 315.01 522.49
  Q 314.54 524.32 315.50 526.13
  A 2.76 2.70 -63.9 0 1 315.78 526.98
  Q 316.58 532.85 320.12 537.74
  Z"
/>
<path fill="#1b5dbd" d="
  M 932.04 502.55
  L 928.24 510.77
  A 0.29 0.29 0.0 0 1 927.80 510.87
  L 911.68 497.80
  A 0.75 0.74 32.5 0 0 910.54 498.05
  Q 904.00 511.47 895.22 523.45
  Q 892.70 526.88 889.60 529.92
  C 884.51 534.89 881.99 538.32 875.70 538.87
  A 1.66 1.62 56.1 0 1 874.79 538.68
  Q 873.48 537.98 873.04 536.64
  Q 875.50 538.11 878.18 537.78
  A 2.13 2.11 23.5 0 0 879.06 537.44
  Q 885.15 533.26 888.43 529.67
  Q 894.59 522.93 900.57 513.09
  Q 908.87 499.42 914.09 486.37
  C 916.27 480.90 918.37 470.17 914.38 465.71
  C 908.73 459.38 897.41 468.33 893.39 472.92
  Q 888.01 479.07 883.99 486.00
  Q 875.75 500.22 870.15 515.97
  Q 872.88 505.32 877.15 494.95
  A 0.12 0.12 0.0 0 0 876.99 494.79
  L 851.21 506.47
  A 0.55 0.54 -9.6 0 0 850.89 506.91
  Q 850.60 509.30 849.59 514.75
  Q 849.01 517.87 848.10 520.30
  A 2.50 2.41 56.9 0 0 847.95 521.09
  L 847.43 540.00
  Q 845.70 532.11 846.41 524.80
  A 3.11 2.93 59.9 0 1 846.59 524.03
  Q 847.20 522.36 847.12 520.66
  A 4.13 4.12 49.7 0 1 847.20 519.67
  Q 849.56 507.96 850.38 505.79
  Q 851.24 503.49 851.98 501.16
  Q 851.13 500.81 850.79 501.21
  C 847.82 503.72 843.32 504.88 839.92 505.19
  A 1.00 0.98 9.8 0 0 839.11 505.75
  C 838.82 506.34 838.97 507.34 838.61 508.18
  Q 832.50 522.22 823.37 534.87
  C 816.02 545.04 806.31 554.48 793.98 556.67
  Q 788.42 557.66 782.10 556.03
  Q 776.26 554.52 772.62 550.96
  Q 768.37 546.83 766.73 541.78
  Q 765.33 537.48 764.73 530.18
  Q 775.07 516.85 788.07 505.08
  A 5.73 5.60 -6.1 0 0 789.12 503.81
  L 793.71 496.23
  Q 788.79 506.14 786.06 516.79
  A 6.49 6.48 51.1 0 0 785.86 518.68
  Q 786.01 521.97 785.17 524.48
  A 5.74 5.68 -36.0 0 0 784.89 526.18
  C 784.85 533.61 783.95 540.49 791.86 542.95
  Q 793.44 543.44 797.45 543.01
  A 3.73 3.71 -64.0 0 0 799.06 542.45
  Q 803.35 539.76 804.29 538.78
  Q 812.71 529.97 815.69 524.69
  Q 821.37 514.61 825.19 504.64
  A 1.76 1.76 0.0 0 0 824.52 502.55
  Q 821.24 500.39 819.62 496.87
  A 3.36 3.26 30.2 0 1 819.34 495.87
  C 818.60 488.89 820.92 481.01 828.76 480.34
  A 0.71 0.71 0.0 0 0 829.40 479.78
  Q 830.50 474.92 828.95 470.09
  Q 833.07 467.17 838.67 466.45
  Q 840.12 466.26 842.37 464.13
  Q 845.98 471.84 845.25 480.50
  Q 844.58 488.45 844.47 488.80
  C 843.86 490.84 843.97 492.94 842.91 494.65
  A 1.08 1.08 0.0 0 0 844.28 496.20
  L 854.86 491.41
  A 4.51 4.51 0.0 0 0 856.94 489.48
  C 863.31 477.90 871.35 467.42 881.87 459.65
  Q 890.78 453.06 899.03 451.29
  Q 901.66 450.73 912.70 450.91
  C 918.69 451.00 925.70 455.06 926.30 461.74
  A 0.48 0.47 52.3 0 0 927.22 461.86
  Q 928.61 458.00 933.27 453.63
  A 3.11 3.00 -77.6 0 1 934.07 453.10
  Q 938.49 451.18 942.75 452.49
  Q 947.53 453.95 946.82 458.98
  A 2.58 2.58 0.0 0 1 946.47 459.93
  Q 945.86 460.90 945.02 463.45
  Q 940.40 477.43 936.33 489.54
  C 935.20 492.89 933.74 498.28 932.04 502.55
  Z"
/>
<path fill="#ff821f" d="
  M 291.88 520.50
  Q 290.50 527.17 291.33 533.60
  Q 287.08 538.72 281.78 543.53
  Q 272.55 551.89 260.29 556.81
  Q 248.87 561.40 237.56 556.00
  C 228.86 551.85 224.98 544.24 222.41 535.20
  A 4.71 4.35 38.3 0 1 222.24 534.13
  Q 221.88 523.03 222.30 521.26
  Q 223.23 517.40 223.72 513.62
  Q 224.25 509.60 225.22 506.00
  Q 229.71 489.38 239.67 475.44
  C 245.84 466.80 252.75 460.84 261.25 456.06
  Q 267.94 452.30 276.84 451.18
  Q 284.18 450.26 290.50 452.71
  A 4.19 4.10 72.2 0 1 291.26 453.11
  Q 297.18 457.08 297.37 464.99
  C 297.49 469.58 297.22 473.13 295.71 477.17
  C 288.72 495.93 272.45 509.21 254.47 517.21
  Q 249.53 519.40 243.42 522.06
  A 0.92 0.91 79.3 0 0 242.87 522.87
  Q 242.65 528.40 242.69 529.58
  C 243.05 539.98 251.37 547.29 261.97 544.04
  Q 268.28 542.10 272.96 538.93
  Q 283.79 531.60 291.88 520.50
  Z
  M 245.92 510.95
  Q 254.25 505.94 261.58 500.36
  Q 275.30 489.92 281.60 474.34
  C 282.90 471.13 285.48 460.36 278.98 459.90
  C 274.10 459.56 269.88 463.97 267.01 467.52
  Q 253.37 484.33 246.88 505.59
  C 246.42 507.10 245.73 508.55 245.02 510.16
  A 0.63 0.63 0.0 0 0 245.92 510.95
  Z"
/>
<path fill="#31914c" d="
  M 508.49 461.29
  L 508.75 462.72
  L 508.78 471.58
  A 1.89 1.87 -35.1 0 1 508.66 472.24
  Q 507.21 476.30 505.84 480.37
  Q 503.74 486.62 497.36 493.98
  Q 496.12 494.15 495.74 495.75
  Q 488.10 505.34 477.77 511.52
  Q 476.75 511.50 476.77 511.99
  Q 476.23 512.55 475.80 512.37
  Q 473.62 512.60 472.40 514.19
  Q 472.42 514.43 472.00 514.48
  Q 470.41 514.63 469.96 515.51
  Q 469.81 515.66 469.52 515.72
  Q 468.17 515.73 467.43 516.72
  Q 466.73 517.33 465.72 517.50
  Q 465.25 517.38 464.96 517.72
  Q 464.03 518.28 463.01 518.46
  Q 462.14 518.15 461.88 519.00
  Q 459.91 520.26 457.51 520.73
  Q 457.02 520.68 456.84 521.01
  Q 454.89 521.64 454.70 523.00
  Q 454.39 525.23 454.58 531.76
  Q 454.35 533.67 455.16 534.74
  L 455.85 536.27
  L 457.00 539.78
  A 1.10 1.07 50.4 0 1 456.93 540.64
  Q 453.10 547.94 446.87 553.16
  A 0.64 0.63 -47.0 0 1 446.09 553.19
  L 440.43 549.08
  L 436.40 542.41
  A 2.00 2.00 0.0 0 1 436.10 541.43
  Q 436.03 539.41 435.03 537.34
  A 0.59 0.59 0.0 0 0 434.00 537.29
  L 432.29 540.04
  Q 431.69 540.31 431.35 540.26
  A 0.29 0.29 0.0 0 1 431.14 539.82
  Q 432.34 537.85 434.12 536.57
  A 2.43 2.42 85.7 0 0 434.88 535.68
  Q 446.64 512.01 463.85 491.71
  L 458.73 504.48
  Q 458.34 506.99 456.56 510.04
  A 0.73 0.73 0.0 0 0 457.52 511.06
  Q 472.86 503.26 484.19 490.01
  Q 488.47 485.01 493.11 475.70
  C 494.11 473.68 494.38 471.88 495.11 468.96
  Q 495.58 467.11 494.67 463.93
  Q 500.39 461.22 502.91 455.47
  A 0.72 0.71 34.3 0 0 502.75 454.67
  Q 500.26 452.31 496.75 452.62
  Q 491.43 453.10 485.99 452.50
  Q 485.77 452.48 485.78 451.97
  Q 485.76 451.85 486.06 451.69
  Q 486.33 451.54 486.46 451.55
  Q 490.33 451.73 494.23 451.50
  C 501.37 451.07 506.52 454.27 508.49 461.29
  Z"
/>
<path fill="#6ea23e" d="
  M 485.78 451.97
  Q 485.77 452.48 485.99 452.50
  Q 491.43 453.10 496.75 452.62
  Q 500.26 452.31 502.75 454.67
  A 0.72 0.71 34.3 0 1 502.91 455.47
  Q 500.39 461.22 494.67 463.93
  L 493.29 461.53
  Q 493.37 461.16 493.01 460.94
  Q 492.71 460.76 492.46 461.04
  L 490.56 460.28
  Q 489.42 459.06 487.69 460.00
  Q 483.47 461.92 480.64 464.89
  Q 477.57 468.11 474.09 473.41
  Q 473.69 473.66 473.80 474.04
  L 470.77 478.12
  Q 469.18 479.88 468.54 482.45
  Q 468.98 482.18 468.54 482.67
  Q 467.36 482.81 467.73 484.48
  Q 467.28 485.87 466.43 486.93
  Q 465.47 487.04 465.19 488.75
  Q 464.23 490.15 463.85 491.71
  Q 446.64 512.01 434.88 535.68
  A 2.43 2.42 85.7 0 1 434.12 536.57
  Q 432.34 537.85 431.14 539.82
  A 0.29 0.29 0.0 0 0 431.35 540.26
  Q 431.69 540.31 432.29 540.04
  Q 427.00 547.82 419.37 553.11
  Q 408.79 560.46 397.39 554.10
  Q 391.99 551.08 391.23 545.12
  Q 397.77 558.56 412.44 554.94
  A 1.13 1.12 -89.5 0 0 413.26 554.13
  L 416.72 540.81
  A 0.29 0.28 -81.2 0 1 417.01 540.59
  Q 417.23 540.60 417.49 540.67
  Q 423.13 539.50 426.50 535.09
  Q 428.56 534.11 429.66 532.01
  Q 429.50 531.53 429.71 531.87
  L 433.57 527.65
  A 0.68 0.67 53.9 0 0 433.68 526.91
  L 433.47 526.47
  L 433.97 525.54
  Q 434.94 524.94 434.51 523.77
  L 435.97 513.73
  Q 436.70 513.50 436.22 512.26
  Q 436.41 510.80 437.04 509.54
  Q 437.45 509.22 437.25 508.51
  Q 441.59 490.37 453.07 475.53
  Q 458.85 468.06 462.02 464.77
  C 464.81 461.87 469.95 457.81 474.53 455.89
  Q 482.57 452.51 482.89 452.39
  A 1.22 0.09 -6.2 0 1 483.59 452.26
  L 485.78 451.97
  Z"
/>
<path fill="#31914c" d="
  M 490.56 460.28
  L 487.69 460.00
  Q 489.42 459.06 490.56 460.28
  Z"
/>
<path fill="#31914c" d="
  M 493.29 461.53
  Q 492.76 461.42 492.46 461.04
  Q 492.71 460.76 493.01 460.94
  Q 493.37 461.16 493.29 461.53
  Z"
/>
<path fill="#008467" d="
  M 508.75 462.72
  L 508.49 461.29
  Q 508.88 461.52 508.75 462.72
  Z"
/>
<path fill="#31914c" d="
  M 474.09 473.41
  Q 474.13 473.67 473.80 474.04
  Q 473.69 473.66 474.09 473.41
  Z"
/>
<path fill="#31914c" d="
  M 470.77 478.12
  Q 470.89 479.13 470.08 479.96
  L 469.79 480.74
  Q 469.41 481.77 468.54 482.45
  Q 469.18 479.88 470.77 478.12
  Z"
/>
<path fill="#008467" d="
  M 470.08 479.96
  Q 470.11 480.27 469.79 480.74
  L 470.08 479.96
  Z"
/>
<path fill="#31914c" d="
  M 468.54 482.67
  Q 468.46 483.72 467.73 484.48
  Q 467.36 482.81 468.54 482.67
  Z"
/>
<path fill="#036cbc" d="
  M 621.53 485.29
  Q 612.24 513.20 602.72 540.99
  Q 600.01 548.89 597.41 554.80
  A 3.63 3.45 -15.0 0 1 596.92 555.60
  Q 596.08 556.61 595.11 558.48
  A 0.28 0.28 0.0 0 0 595.35 558.89
  L 608.88 559.62
  A 0.53 0.48 -47.9 0 0 608.98 559.61
  Q 610.61 559.08 616.97 558.92
  Q 621.73 558.80 631.38 555.81
  Q 660.29 546.87 672.33 520.06
  C 675.76 512.42 676.04 504.53 674.46 496.47
  Q 685.17 493.02 695.27 487.66
  Q 701.23 500.46 698.89 513.58
  C 694.81 536.53 676.57 554.29 656.08 564.09
  Q 642.58 570.54 624.05 572.52
  Q 606.35 574.41 590.73 572.50
  Q 576.89 570.82 573.71 570.30
  C 568.79 569.49 561.10 567.81 555.54 564.95
  C 551.87 563.06 549.94 559.02 552.45 555.41
  C 556.94 548.95 565.92 553.51 571.67 555.31
  A 1.39 1.39 0.0 0 0 573.32 554.63
  Q 579.49 542.84 583.74 531.21
  Q 591.80 509.17 598.77 487.01
  Q 610.29 485.36 621.53 485.29
  Z"
/>
<path fill="#31914c" d="
  M 466.43 486.93
  Q 466.22 487.98 465.53 488.85
  Q 465.36 488.80 465.19 488.75
  Q 465.47 487.04 466.43 486.93
  Z"
/>
<path fill="#008467" d="
  M 465.19 488.75
  Q 465.36 488.80 465.53 488.85
  L 458.73 504.48
  L 463.85 491.71
  Q 464.23 490.15 465.19 488.75
  Z"
/>
<path fill="#f16c5a" d="
  M 103.72 549.52
  Q 105.19 553.98 107.65 558.21
  C 108.68 559.98 109.33 563.40 108.84 565.53
  Q 107.25 572.37 98.84 571.62
  Q 92.20 566.35 89.17 562.57
  Q 82.32 554.05 80.39 543.97
  Q 79.41 538.85 80.20 528.79
  Q 80.95 519.31 86.78 510.28
  Q 92.56 501.33 101.29 495.57
  C 109.72 490.00 118.65 488.39 127.94 491.80
  Q 132.82 493.59 135.14 498.31
  A 0.72 0.71 78.9 0 1 134.45 499.34
  Q 133.89 499.31 133.45 499.43
  C 117.60 503.91 104.42 516.32 102.04 533.02
  Q 101.69 535.43 101.96 543.29
  A 2.09 2.03 36.1 0 0 102.05 543.82
  L 103.72 549.52
  Z"
/>
<path fill="#008467" d="
  M 497.36 493.98
  Q 496.70 495.19 495.74 495.75
  Q 496.12 494.15 497.36 493.98
  Z"
/>
<path fill="#4a47bd" d="
  M 870.15 515.97
  Q 868.99 523.19 869.43 530.24
  Q 869.31 531.50 869.97 532.45
  Q 871.05 534.91 873.04 536.64
  Q 873.48 537.98 874.79 538.68
  A 1.66 1.62 56.1 0 0 875.70 538.87
  C 881.99 538.32 884.51 534.89 889.60 529.92
  Q 892.70 526.88 895.22 523.45
  Q 904.00 511.47 910.54 498.05
  A 0.75 0.74 32.5 0 1 911.68 497.80
  L 927.80 510.87
  A 0.29 0.29 0.0 0 0 928.24 510.77
  L 932.04 502.55
  Q 923.98 528.61 919.10 543.37
  Q 916.19 552.17 909.33 571.29
  Q 905.80 581.13 902.46 587.37
  C 891.92 607.12 879.57 627.47 859.71 639.43
  C 852.17 643.98 844.51 645.40 835.83 646.62
  A 2.37 2.15 43.7 0 1 835.04 646.60
  L 825.93 644.67
  A 4.11 3.77 61.5 0 1 825.00 644.35
  C 823.70 643.50 820.87 642.70 818.85 641.28
  Q 809.57 634.77 809.64 622.98
  C 809.69 614.96 813.28 607.66 817.66 600.63
  Q 821.49 594.48 827.79 589.29
  C 845.53 574.67 866.33 567.16 888.22 563.05
  A 2.37 2.36 -84.9 0 0 890.01 561.55
  L 902.73 527.87
  A 0.34 0.34 0.0 0 0 902.37 527.41
  Q 901.99 527.45 901.75 527.76
  C 894.23 537.67 886.49 547.66 875.47 553.65
  C 872.88 555.06 868.72 555.94 866.45 556.52
  A 3.50 3.37 37.3 0 1 865.51 556.63
  Q 853.00 556.44 848.49 544.71
  Q 847.79 542.88 847.43 540.00
  L 847.95 521.09
  A 2.50 2.41 56.9 0 1 848.10 520.30
  Q 849.01 517.87 849.59 514.75
  Q 850.60 509.30 850.89 506.91
  A 0.55 0.54 -9.6 0 1 851.21 506.47
  L 876.99 494.79
  A 0.12 0.12 0.0 0 1 877.15 494.95
  Q 872.88 505.32 870.15 515.97
  Z
  M 887.05 568.88
  Q 884.32 569.37 880.38 570.65
  Q 874.02 572.72 866.42 576.20
  C 849.99 583.72 834.77 596.37 829.63 613.64
  Q 828.42 617.72 828.69 623.74
  C 828.99 630.20 831.94 634.47 838.55 634.50
  C 844.70 634.53 851.68 629.55 855.82 625.29
  Q 866.87 613.92 874.04 599.77
  Q 881.12 585.80 887.61 569.58
  A 0.51 0.51 0.0 0 0 887.05 568.88
  Z"
/>
<path fill="#008467" d="
  M 851.98 501.16
  L 850.79 501.21
  Q 851.13 500.81 851.98 501.16
  Z"
/>
<path fill="#008bb3" d="
  M 511.97 548.66
  C 514.42 543.04 519.94 539.19 524.48 535.46
  Q 527.43 533.04 529.86 534.92
  Q 529.98 539.03 531.43 541.02
  Q 533.72 544.18 537.76 542.56
  C 548.15 538.40 554.98 530.79 562.09 522.34
  Q 568.16 515.11 573.97 508.04
  A 0.96 0.94 38.9 0 1 575.30 507.91
  L 577.46 509.66
  A 1.30 1.29 -57.3 0 1 577.80 511.24
  Q 568.56 529.60 554.07 545.38
  Q 551.84 547.80 548.90 550.08
  C 543.39 554.35 539.86 557.02 532.95 557.94
  C 531.26 558.17 529.80 559.02 528.58 558.30
  Q 528.08 558.00 526.48 557.89
  Q 516.53 557.21 511.97 548.66
  Z"
/>
<path fill="#31914c" d="
  M 437.25 508.51
  Q 437.45 509.22 437.04 509.54
  Q 436.97 508.95 437.25 508.51
  Z"
/>
<path fill="#008467" d="
  M 477.77 511.52
  L 476.77 511.99
  Q 476.75 511.50 477.77 511.52
  Z"
/>
<path fill="#31914c" d="
  M 436.22 512.26
  Q 436.70 513.50 435.97 513.73
  L 436.22 512.26
  Z"
/>
<path fill="#008467" d="
  M 475.80 512.37
  Q 474.42 513.79 472.40 514.19
  Q 473.62 512.60 475.80 512.37
  Z"
/>
<path fill="#008467" d="
  M 472.00 514.48
  Q 471.07 515.29 469.96 515.51
  Q 470.41 514.63 472.00 514.48
  Z"
/>
<path fill="#008467" d="
  M 469.52 515.72
  Q 468.76 516.47 467.43 516.72
  Q 468.17 515.73 469.52 515.72
  Z"
/>
<path fill="#008467" d="
  M 465.72 517.50
  Q 465.39 517.71 464.96 517.72
  Q 465.25 517.38 465.72 517.50
  Z"
/>
<path fill="#008467" d="
  M 463.01 518.46
  Q 462.57 518.95 461.88 519.00
  Q 462.14 518.15 463.01 518.46
  Z"
/>
<path fill="#6ea23e" d="
  M 393.26 520.54
  Q 393.32 521.04 393.00 521.25
  Q 392.98 520.78 393.26 520.54
  Z"
/>
<path fill="#008467" d="
  M 457.51 520.73
  Q 457.24 520.97 456.84 521.01
  Q 457.02 520.68 457.51 520.73
  Z"
/>
<path fill="#6ea23e" d="
  M 393.00 521.25
  Q 393.11 521.75 392.81 522.03
  Q 392.77 521.55 393.00 521.25
  Z"
/>
<path fill="#31914c" d="
  M 434.51 523.77
  Q 434.94 524.94 433.97 525.54
  Q 433.97 524.54 434.51 523.77
  Z"
/>
<path fill="#31914c" d="
  M 433.47 526.47
  L 433.68 526.91
  A 0.68 0.67 53.9 0 1 433.57 527.65
  L 429.71 531.87
  L 433.47 526.47
  Z"
/>
<path fill="#008467" d="
  M 411.92 526.76
  L 411.79 528.28
  Q 411.46 527.89 411.92 526.76
  Z"
/>
<path fill="#008467" d="
  M 411.69 528.46
  Q 411.68 528.86 411.55 529.21
  Q 411.51 529.08 411.47 528.96
  Q 411.53 528.68 411.69 528.46
  Z"
/>
<path fill="#6ea23e" d="
  M 411.47 528.96
  Q 411.51 529.08 411.55 529.21
  L 411.28 529.96
  Q 411.11 529.38 411.47 528.96
  Z"
/>
<path fill="#6ea23e" d="
  M 390.93 529.21
  Q 391.34 530.08 390.78 530.54
  Q 390.72 529.87 390.93 529.21
  Z"
/>
<path fill="#6ea23e" d="
  M 411.18 530.19
  L 411.45 534.07
  Q 410.77 532.34 411.18 530.19
  Z"
/>
<path fill="#008467" d="
  M 869.97 532.45
  Q 869.31 531.50 869.43 530.24
  Q 870.15 531.16 869.97 532.45
  Z"
/>
<path fill="#008467" d="
  M 455.16 534.74
  Q 454.35 533.67 454.58 531.76
  Q 455.16 533.17 455.16 534.74
  Z"
/>
<path fill="#31914c" d="
  M 429.66 532.01
  Q 428.56 534.11 426.50 535.09
  Q 427.71 533.12 429.66 532.01
  Z"
/>
<path fill="#6ea23e" d="
  M 390.25 533.53
  L 390.24 534.25
  Q 389.92 534.32 390.25 533.53
  Z"
/>
<path fill="#6ea23e" d="
  M 411.71 536.06
  Q 411.21 535.43 411.54 534.54
  Q 411.83 535.28 411.71 536.06
  Z"
/>
</svg>
